<svg fill="white" height="512" viewBox="0 0 60 60" width="512" xmlns="http://www.w3.org/2000/svg"><g id="Page-1" fill="white"><g id="030---Cake" transform="translate(0 -1)"><path id="Shape" d="m55.916 41.355-7.935-25.569c-.2-2.806-4.215-5.149-10.638-6.208-.7961507-1.93366324-2.9199821-2.95830742-4.929-2.378.4103707-1.56385504 1.4681859-2.87848507 2.908-3.614 1.9602232-.92009391 4.260821-.73525501 6.049.486.4484552.32253429 1.0734657.22045522 1.396-.228s.2204552-1.07346571-.228-1.396c-2.0555033-1.48694361-4.706668-1.87890368-7.1045031-1.05036157-2.3978351.8285421-4.2414645 2.77362238-4.9404969 5.21236157-2.964-2.393-6.331-.536-7.243 2.872-5.445.819-10.987 2.859-11.227 6.29l-7.94 25.583c-2.665 1.97-4.084 4.259-4.084 6.645 0 7.29 13.178 13 30 13s30-5.71 30-13c0-2.386-1.419-4.675-4.084-6.645zm-45.223-14.547c.857956.6894096 1.3600051 1.7283978 1.367 2.829.037 2.112-1.044 4.248-1.341 6.584-.151 1.156-.07 3.713 1.315 5.119 1.348 1.367 3.777 1.3 5.106-1.125.821-1.518.926-3.336 1.872-4.405.2922884-.3782084.7592609-.5785283 1.2347476-.5296769.4754868.0488514.8919723.3399375 1.1012524.7696769 1.252 2.227-1.665 5.207-1.373 8.484.0776655 1.3426029.8391847 2.5513105 2.016703 3.2009758s2.606114.6492968 3.783297-.0009758c4.478-2.239 2.236-8.279 3.75-8.854.353164-.1097693.7364189-.0631819 1.053.128 2.2 1.2.826 5.408 3.754 7.647 1.1000972.7984881 2.5129737 1.0297813 3.8102548.623753s2.3261814-1.4015587 2.7747452-2.684753c.922-2.783-1.288-5.267-1.545-7.394-.1591583-.8148314.1846572-1.6458172.873-2.11.5334495-.1365186 1.0999694-.0052382 1.519.352 1.245.894 1.9 2.909 3.928 4.066 1.0149319.625492 2.2991615.6113179 3.3000406-.0364229 1.0008791-.6477407 1.539844-1.8134867 1.3849594-2.9955771-.1-1.811-1.405-3.33-1.523-4.638-.0641152-.7855486.2447715-1.5555432.834-2.079.1378372-.1095641.2874216-.2034736.446-.28l4.866 15.658c-.249 3.748-10.445 7.863-25 7.863s-24.751-4.115-24.995-7.863zm36.082-8.159 2.759 8.892c-1.7680826.7554747-2.8467791 2.5654225-2.67 4.48.168 1.85 1.443 3.2 1.517 4.558.051 1.031-.7 1.763-1.694 1.192-1.557-.886-2.159-2.807-3.741-3.943-.9676672-.7746206-2.2641138-1.0009423-3.437-.6-1.5521488.7828592-2.412678 2.4860745-2.122 4.2.3 2.468 2.247 4.678 1.634 6.533-.2445854.6699555-.7861313 1.1885407-1.4660482 1.4038902-.6799169.2153494-1.4212681.1030949-2.0069518-.3038902-2.152-1.644-.72-6.017-4.005-7.811-.8333685-.4777646-1.8346945-.5648046-2.738-.238-3.526 1.339-.41 7.173-3.922 8.929-.7311407.39128-1.624072.315661-2.279-.193-1.708-1.559.395-4.78.882-7 1.1-4.989-3.6-6.972-5.975-4.267-.7110478.899224-1.2171691 1.9428647-1.483 3.058-.266.864-.753 2.563-1.721 2.67-.3115865.0553464-.6301432-.0494617-.848-.279-.6795879-1.016622-.9499751-2.2524733-.757-3.46.286-2.232 1.4-4.333 1.358-6.88-.0075201-1.9564082-1.0642428-3.7583343-2.768-4.72l1.933-6.228c5.622 5.736 27.839 5.828 33.55.007zm-18.693-11.08c.8895945.24438612 1.6362729.84999707 2.059 1.67.1239423.27894865.3678327.48653634.6630014.56431466.2951687.07777831.6096868.01733384.8549986-.16431466.7693756-.51246221 1.7191082-.67692279 2.616-.453 1.379.355 1.7 2.187 1.346 3.57-.538779 1.7994207-1.8087886 3.2896863-3.5 4.107-1.4857444.1269518-2.977857.163019-4.468.108-4.671-4.164-2.304-10.101.429-9.402zm-5.061 3.97c.011603 1.874142.6161439 3.6965161 1.727 5.206-.5087098.0163789-.9221118.4158195-.9559511.9236668s.3229117.9586053.8249511 1.0423332c4.1789076.5250982 8.4168924.3302795 12.53-.576.3568229-.0673519.6490942-.3228407.7635483-.6674551.1144541-.3446145.0331023-.7241917-.2125288-.9916319-.245631-.2674402-.6169355-.3807099-.9700195-.295913-.267.058-.528.105-.79.156 1.1257893-1.2961702 1.7669225-2.9428291 1.814-4.659 5.418 1.008 8.248 2.884 8.248 4.323 0 2.088-6.087 5-16 5s-16-2.912-16-5c0-1.5 3.152-3.5 9.021-4.461zm6.979 47.461c-15.178 0-28-5.038-28-11 .03117228-1.024484.38537785-2.0128996 1.012-2.824.251 6.381 14.019 9.824 26.988 9.824s26.737-3.443 26.988-9.824c.6266221.8111004.9808277 1.799516 1.012 2.824 0 5.962-12.822 11-28 11z"/></g></g></svg>