<?xml version="1.0"?>
<svg fill="white"  xmlns="http://www.w3.org/2000/svg" width="512" height="512" viewBox="0 0 128 128"><g><path d="M121.693,22.245a1.75,1.75,0,0,0,1.75-1.75V13.49a1.749,1.749,0,0,0-1.75-1.75H67.842a7.482,7.482,0,0,0-7.465-7.183H35.433a7.482,7.482,0,0,0-7.465,7.183h-6.5a5.253,5.253,0,0,0,0,10.505h6.485V27.74H21.468a5.253,5.253,0,0,0,0,10.505h6.485V58.25H6.307A1.75,1.75,0,0,0,4.557,60a59.382,59.382,0,0,0,30.5,51.913v9.78a1.749,1.749,0,0,0,1.75,1.75H91.2a1.749,1.749,0,0,0,1.75-1.75v-9.78A59.382,59.382,0,0,0,123.443,60a1.75,1.75,0,0,0-1.75-1.75H67.857V38.245h53.836a1.75,1.75,0,0,0,1.75-1.75v-7a1.749,1.749,0,0,0-1.75-1.75H67.857V22.245Zm-1.75-3.5H67.857V15.24h52.086ZM49.426,58.25V8.057h5.725V58.25Zm-9.224,0V8.057h5.724V58.25Zm-18.734-39.5a1.753,1.753,0,0,1,0-3.505h6.485v3.505Zm0,16a1.753,1.753,0,0,1,0-3.5h6.485v3.5Zm9.985-22.708a3.984,3.984,0,0,1,3.98-3.98H36.7V58.25H31.453Zm7.1,107.906v-7.307H89.446v7.307Zm52.2-10.807H37.247A55.9,55.9,0,0,1,8.084,61.75H119.916A55.9,55.9,0,0,1,90.753,109.136ZM58.651,58.25V8.057h1.726a3.984,3.984,0,0,1,3.98,3.98V58.25Zm61.292-27.01v3.5H67.857v-3.5Z"/><path d="M86.705,101.984a1.737,1.737,0,0,0,.859-.227,48.013,48.013,0,0,0,18.752-19.21,1.75,1.75,0,0,0-3.087-1.649A44.522,44.522,0,0,1,85.842,98.71a1.75,1.75,0,0,0,.863,3.274Z"/><path d="M107.472,75.745a1.75,1.75,0,0,0,2.2-1.135,47.626,47.626,0,0,0,1.344-5.2,1.75,1.75,0,1,0-3.433-.683,44.058,44.058,0,0,1-1.245,4.821A1.751,1.751,0,0,0,107.472,75.745Z"/></g></svg>
