<svg fill="white"  height="512" viewBox="0 0 128 128" width="512" xmlns="http://www.w3.org/2000/svg"><g><path d="m123.443 38.044c0-5.661-2.433-15.421-18.546-17.783-14.8-2.169-21.835 1.255-29.278 4.881-7.8 3.8-16.648 8.118-37.111 6.674-14.149-.994-24.069 1.926-29.492 8.671a22.009 22.009 0 0 0 -4.459 14.534v17.391c0 .621 0 1.179.048 1.654h-.048a28.091 28.091 0 0 0 .916 7.469c2.01 6.834 10.954 26.9 46.23 26.895a113.128 113.128 0 0 0 15.629-1.158c30.969-4.333 56.019-30.415 56.111-49.129v-20.1zm-111.683 4.617c4.667-5.785 13.587-8.261 26.5-7.352 21.4 1.5 30.691-3.026 38.889-7.021 7.244-3.529 13.5-6.58 27.238-4.564 10.2 1.5 15.58 6.468 15.553 14.38-.056 17.236-24.568 41.709-53.095 45.7-45.6 6.387-55.936-16.185-58.017-23.256-.04-.148-2.964-10.579 2.932-17.887zm108.183 15.472c-.085 17.226-24.6 41.684-53.095 45.671-45.607 6.383-55.938-16.189-58.017-23.255a25.063 25.063 0 0 1 -.774-6.456v-6.406c4.705 8.613 16.21 20.743 43.643 20.742a113.142 113.142 0 0 0 15.63-1.158c24.154-3.38 44.685-19.965 52.611-35.978z"/><path d="m65.722 95.729c-14.374 3.08-24.669.067-24.771.036a1.749 1.749 0 0 0 -1.016 3.348 47.4 47.4 0 0 0 12.782 1.517 65.585 65.585 0 0 0 13.737-1.48 1.749 1.749 0 1 0 -.732-3.421z"/><path d="m80.33 91.235a60.52 60.52 0 0 1 -6.84 2.248 1.75 1.75 0 0 0 .45 3.441 1.731 1.731 0 0 0 .453-.06 62.541 62.541 0 0 0 7.378-2.439 1.75 1.75 0 1 0 -1.441-3.19z"/><path d="m95.641 38.023a1.766 1.766 0 0 0 .59-.1l9.486-3.4a1.75 1.75 0 0 0 -1.182-3.3l-9.485 3.4a1.75 1.75 0 0 0 .591 3.4z"/><path d="m26 56.933 2.481 1.585-7.757 2.782a1.75 1.75 0 0 0 .591 3.4 1.771 1.771 0 0 0 .591-.1l10.3-3.7 8.3 5.3-9.319 3.35a1.75 1.75 0 0 0 .591 3.4 1.771 1.771 0 0 0 .591-.1l11.867-4.259 12.655 8.086a1.75 1.75 0 1 0 1.884-2.949l-10.375-6.636 13.588-4.877 8.752 5.593-4.474 1.6a1.75 1.75 0 0 0 .59 3.4 1.768 1.768 0 0 0 .591-.1l7.02-2.519 3.074 1.964a1.75 1.75 0 0 0 1.883-2.953l-.8-.509 4.354-1.562a1.75 1.75 0 1 0 -1.178-3.291l-6.9 2.476-8.752-5.593 11.6-4.163 13.11 8.377a1.75 1.75 0 0 0 1.885-2.95l-10.83-6.921 11.691-4.2 8.577 5.481a1.75 1.75 0 1 0 1.884-2.95l-6.3-4.025 11.021-3.955a1.75 1.75 0 1 0 -1.182-3.295l-13.565 4.873-8.3-5.306 3.975-1.426a1.75 1.75 0 1 0 -1.182-3.3l-6.52 2.34-5.163-3.3a1.75 1.75 0 1 0 -1.885 2.949l2.883 1.85-11.691 4.2-6.656-4.255a1.75 1.75 0 1 0 -1.885 2.949l4.375 2.8-11.6 4.163-13.722-8.773a1.75 1.75 0 1 0 -1.885 2.949l11.447 7.314-13.589 4.877-4.758-3.041a1.75 1.75 0 0 0 -1.883 2.95zm55.574-13.752 8.3 5.306-11.691 4.2-8.3-5.3zm-15.853 5.69 8.3 5.305-11.6 4.164-8.3-5.305zm-15.764 5.658 8.3 5.305-13.586 4.876-8.3-5.3z"/><path d="m17.149 51.278 3.224 2.06a1.75 1.75 0 1 0 1.884-2.949l-3.223-2.06a1.75 1.75 0 1 0 -1.885 2.949z"/></g></svg>